<?xml version="1.0" standalone="no"?>
<!DOCTYPE svg PUBLIC "-//W3C//DTD SVG 20010904//EN"
 "http://www.w3.org/TR/2001/REC-SVG-20010904/DTD/svg10.dtd">
<svg version="1.0" xmlns="http://www.w3.org/2000/svg"
 width="1227.000000pt" height="825.000000pt" viewBox="0 0 1227.000000 825.000000"
 preserveAspectRatio="xMidYMid meet">

<g transform="translate(0.000000,825.000000) scale(0.100000,-0.100000)"
fill="#000000" stroke="none">
<path d="M1521 8239 c-297 -32 -602 -142 -828 -302 -114 -81 -271 -238 -355
-357 -176 -248 -295 -590 -327 -940 -7 -75 -11 -746 -11 -1942 l0 -1828 220 0
220 0 0 1763 c0 1021 4 1821 10 1903 42 622 334 1051 829 1219 150 51 279 69
481 69 195 0 299 -15 450 -65 427 -139 711 -479 822 -984 l22 -100 6 -1900 5
-1900 223 -3 222 -2 0 1825 c0 1226 4 1858 11 1923 67 610 406 1033 937 1168
261 67 591 52 853 -37 398 -135 684 -480 779 -941 39 -190 40 -244 41 -2005 1
-945 5 -2089 9 -2543 8 -913 8 -907 80 -1148 170 -570 584 -954 1156 -1072
313 -65 666 -48 951 45 356 117 653 363 834 692 l41 75 43 -76 c154 -270 367
-476 625 -606 349 -175 828 -218 1241 -111 283 73 490 191 690 390 232 233
369 513 442 906 20 108 21 145 24 1888 l4 1777 -216 0 -215 0 0 -1712 c0
-1808 0 -1798 -46 -1998 -85 -378 -327 -674 -662 -810 -245 -99 -578 -119
-849 -50 -200 52 -352 139 -499 285 -145 144 -223 273 -288 475 -76 232 -70
82 -73 2048 l-3 1762 -215 0 -214 0 -4 -1752 c-4 -1923 1 -1789 -63 -2013
-149 -531 -575 -845 -1144 -845 -223 0 -394 37 -575 124 -130 63 -206 118
-304 221 -150 158 -245 349 -302 605 l-23 105 -1 2565 c0 2713 2 2610 -46
2849 -142 710 -613 1196 -1289 1330 -530 104 -1057 7 -1440 -266 -184 -132
-361 -336 -466 -537 l-46 -89 -42 79 c-289 549 -840 860 -1513 853 -70 -1
-166 -6 -212 -10z"/>
</g>
</svg>
