<?xml version="1.0" standalone="no"?>
<!DOCTYPE svg PUBLIC "-//W3C//DTD SVG 20010904//EN"
 "http://www.w3.org/TR/2001/REC-SVG-20010904/DTD/svg10.dtd">
<svg version="1.0" xmlns="http://www.w3.org/2000/svg"
 width="1227.000000pt" height="1233.000000pt" viewBox="0 0 1227.000000 1233.000000"
 preserveAspectRatio="xMidYMid meet">

<g transform="translate(0.000000,1233.000000) scale(0.100000,-0.100000)"
fill="#000000" stroke="none">
<path d="M6740 12320 c0 -7 -16 -139 -36 -294 -21 -164 -33 -301 -30 -328 15
-140 114 -238 257 -254 67 -8 155 15 195 49 l27 23 46 -46 c55 -55 119 -80
204 -80 84 0 132 17 187 67 76 68 87 105 130 443 21 162 36 296 35 298 -3 4
-129 22 -130 19 -1 -1 -18 -134 -38 -295 -39 -315 -49 -351 -107 -385 -34 -21
-111 -22 -148 -3 -48 25 -74 62 -80 111 -2 25 10 172 29 325 18 154 31 282 28
285 -3 3 -33 8 -67 11 -49 6 -62 4 -62 -7 0 -8 -15 -139 -34 -291 -36 -291
-47 -333 -96 -368 -67 -48 -178 -27 -220 42 -28 46 -26 96 12 401 19 157 28
261 22 266 -16 15 -124 24 -124 11z"/>
<path d="M5570 12258 c-91 -11 -167 -22 -169 -24 -4 -4 73 -717 86 -801 l6
-33 56 6 c31 4 60 10 65 15 5 4 1 68 -8 149 -10 78 -16 143 -14 145 2 2 49 9
106 15 l102 12 132 -137 131 -136 76 7 c42 3 80 9 85 11 4 3 -54 68 -130 144
l-138 138 51 45 c61 55 85 109 86 191 0 121 -44 204 -134 249 -66 32 -145 33
-389 4z m330 -121 c53 -26 78 -134 45 -196 -8 -16 -29 -35 -47 -44 -30 -14
-315 -54 -322 -46 -5 6 -33 263 -30 268 6 7 198 29 264 30 36 0 76 -5 90 -12z"/>
<path d="M4870 12117 c-168 -44 -306 -80 -306 -81 -1 0 45 -183 102 -406 57
-223 104 -406 104 -407 0 -1 111 28 248 63 136 35 275 71 308 80 l62 16 -17
61 c-14 52 -20 61 -36 59 -11 -2 -112 -28 -225 -57 -113 -29 -214 -55 -224
-57 -17 -3 -23 11 -47 107 -15 60 -27 110 -26 111 1 0 94 25 207 54 113 28
207 53 208 55 6 5 -21 115 -28 120 -4 2 -100 -20 -214 -49 -113 -30 -208 -51
-210 -47 -8 14 -50 201 -45 204 2 2 106 30 231 62 124 32 232 61 238 65 10 6
8 22 -6 67 l-19 59 -305 -79z"/>
<path d="M8103 12056 c-82 -26 -154 -89 -196 -171 -17 -34 -171 -544 -166
-549 7 -6 121 -37 124 -34 1 2 17 53 35 115 18 61 36 117 41 124 6 10 55 -2
216 -50 114 -35 212 -67 216 -71 5 -4 -8 -61 -27 -127 -20 -66 -36 -123 -36
-126 0 -6 99 -37 117 -37 6 0 45 117 88 261 66 224 77 272 77 336 0 163 -103
280 -289 328 -69 18 -143 18 -200 1z m235 -153 c111 -56 144 -141 107 -278
-10 -36 -22 -68 -26 -71 -7 -4 -195 51 -406 117 -37 12 -37 18 -1 117 53 144
180 189 326 115z"/>
<path d="M4040 11836 c-25 -7 -118 -43 -207 -81 l-162 -67 15 -37 c8 -20 78
-191 156 -381 77 -190 144 -348 147 -352 7 -8 310 118 375 156 65 38 131 108
163 174 26 52 28 67 28 168 0 110 0 111 -43 197 -50 101 -109 164 -189 203
-47 24 -72 29 -147 31 -54 1 -110 -3 -136 -11z m227 -141 c85 -43 151 -154
161 -270 6 -85 -26 -157 -96 -212 -48 -38 -243 -128 -263 -121 -12 4 -221 508
-216 521 1 5 34 22 72 39 173 75 256 86 342 43z"/>
<path d="M8927 11736 c-57 -21 -114 -64 -151 -115 -25 -34 -204 -401 -253
-518 -4 -11 47 -43 94 -57 20 -7 27 3 80 112 l58 120 205 -98 c113 -54 204
-102 203 -107 -1 -6 -25 -60 -53 -122 -29 -62 -50 -114 -48 -115 12 -12 111
-56 115 -53 11 11 213 453 229 500 37 112 15 239 -56 320 -104 118 -296 178
-423 133z m218 -144 c143 -68 179 -176 110 -330 -15 -34 -29 -62 -30 -62 -3 0
-410 192 -414 196 -6 5 49 117 74 150 13 17 43 41 67 53 60 29 120 27 193 -7z"/>
<path d="M9668 11338 c-186 -287 -390 -608 -390 -614 -1 -7 500 -343 512 -343
5 -1 70 96 70 104 0 3 -90 64 -200 136 -110 72 -200 135 -200 139 0 4 83 136
185 294 102 158 185 291 185 295 0 9 -91 71 -103 71 -3 0 -30 -37 -59 -82z"/>
<path d="M2888 11224 c-66 -20 -166 -91 -211 -150 -73 -95 -85 -216 -33 -329
20 -43 281 -439 316 -478 7 -8 110 58 110 70 0 3 -57 88 -127 191 -172 251
-181 264 -194 315 -14 59 2 117 48 168 104 115 234 127 324 31 20 -20 96 -125
169 -232 73 -107 138 -200 144 -207 8 -9 24 -2 63 27 l53 37 -146 214 c-169
248 -207 291 -289 330 -69 33 -147 38 -227 13z"/>
<path d="M2219 10676 c-68 -18 -130 -58 -191 -124 -81 -88 -102 -138 -103
-242 0 -126 20 -159 248 -406 l189 -206 44 43 c24 24 44 47 44 51 0 4 -38 49
-85 100 -47 51 -84 95 -83 99 6 13 320 304 331 306 7 1 50 -40 96 -92 l85 -94
48 41 c26 22 48 43 48 47 0 17 -366 403 -408 431 -84 56 -171 71 -263 46z
m165 -144 c38 -19 136 -111 136 -128 0 -7 -13 -23 -29 -36 -16 -13 -91 -81
-166 -153 l-138 -130 -53 59 c-90 99 -104 185 -44 280 71 111 197 157 294 108z"/>
<path d="M10297 10359 c-42 -28 -77 -52 -77 -55 0 -2 46 -48 102 -102 492
-471 929 -1087 1221 -1718 480 -1038 648 -2213 477 -3334 -10 -69 -16 -128
-12 -131 11 -10 162 -62 166 -58 6 6 43 258 60 409 51 458 46 958 -15 1435
-115 897 -448 1793 -944 2540 -128 193 -251 360 -385 520 -125 151 -358 402
-444 479 l-72 64 -77 -49z"/>
<path d="M1652 10161 c-23 -27 -42 -55 -42 -62 0 -7 68 -141 151 -297 83 -156
149 -286 146 -288 -2 -3 -145 37 -318 87 l-313 91 -23 -28 c-47 -57 -63 -83
-56 -87 5 -3 198 -60 431 -127 335 -97 425 -120 437 -110 8 6 23 9 35 5 20 -6
21 -5 10 15 -8 15 -8 25 -1 34 9 10 -40 110 -200 412 -116 220 -212 400 -213
402 -2 1 -22 -20 -44 -47z"/>
<path d="M3319 8950 c-426 -50 -750 -313 -878 -715 -68 -210 -66 -173 -66
-1485 l0 -1185 140 0 140 0 5 1220 c6 1335 2 1244 65 1411 98 262 315 438 595
483 92 15 255 14 342 -3 167 -32 284 -93 398 -206 109 -108 174 -227 223 -405
21 -80 21 -86 24 -1292 l4 -1213 139 0 140 0 0 1143 c0 707 4 1176 10 1232 42
373 245 631 570 725 106 31 316 39 429 16 180 -37 286 -91 407 -211 69 -68 89
-97 133 -185 59 -120 86 -217 101 -361 6 -65 10 -653 10 -1643 0 -1654 -1
-1629 51 -1816 125 -459 533 -733 1048 -707 355 18 646 190 804 476 l35 64 22
-44 c61 -120 188 -260 312 -342 151 -99 360 -157 573 -157 467 0 824 247 964
665 66 198 64 146 68 1383 l4 1122 -140 0 -141 0 -2 -1137 -3 -1138 -22 -80
c-13 -44 -44 -123 -69 -175 -64 -129 -170 -237 -294 -297 -134 -66 -191 -78
-370 -78 -179 0 -236 12 -370 78 -67 32 -103 59 -166 122 -70 70 -89 97 -132
186 -58 119 -78 188 -92 320 -6 56 -10 525 -10 1147 l0 1052 -135 0 -134 0 -3
-1132 -3 -1133 -23 -80 c-78 -279 -243 -456 -502 -537 -65 -20 -95 -23 -230
-23 -182 0 -238 12 -376 80 -187 92 -316 269 -370 510 -17 75 -18 180 -19
1730 l0 1650 -22 95 c-72 322 -213 545 -442 699 -366 248 -952 237 -1299 -24
-92 -69 -201 -192 -257 -288 -27 -47 -52 -86 -56 -87 -3 0 -15 21 -28 48 -33
68 -101 160 -169 229 -224 228 -568 335 -933 293z"/>
<path d="M921 8940 c-130 -27 -243 -158 -277 -322 -11 -53 -12 -83 -5 -124 27
-142 85 -193 398 -352 l240 -121 28 59 c16 33 27 62 24 64 -2 2 -55 29 -116
60 -62 31 -113 58 -113 61 0 3 46 97 102 209 l102 204 119 -60 c66 -32 120
-58 122 -56 5 6 55 107 55 112 0 8 -444 233 -490 249 -62 20 -137 27 -189 17z
m202 -168 l67 -31 -105 -211 -105 -210 -42 21 c-79 40 -119 72 -144 114 -42
73 -29 175 35 269 64 92 165 109 294 48z"/>
<path d="M503 8106 c-83 -39 -111 -88 -194 -334 -39 -117 -70 -214 -68 -216 2
-1 173 -59 379 -129 206 -69 382 -128 391 -132 13 -5 21 5 34 47 10 29 20 58
22 64 3 7 -50 30 -136 59 -78 26 -141 49 -141 53 0 3 14 49 32 103 l31 96 181
65 180 65 27 82 c15 44 27 81 25 81 -1 0 -86 -31 -188 -69 l-187 -69 -11 54
c-24 114 -125 193 -257 201 -57 3 -76 0 -120 -21z m188 -131 c39 -21 64 -61
64 -104 0 -45 -85 -311 -99 -311 -17 0 -230 72 -240 81 -12 10 67 256 96 299
13 19 35 41 48 48 29 15 88 9 131 -13z"/>
<path d="M182 7346 c-7 -35 -12 -73 -12 -85 0 -14 51 -80 141 -182 78 -88 140
-161 138 -163 -2 -1 -87 -47 -189 -100 -102 -54 -188 -103 -191 -108 -8 -13
-31 -149 -26 -154 2 -2 121 59 264 135 l260 139 153 -28 c227 -43 203 -46 216
28 9 47 9 65 0 67 -6 2 -63 13 -126 25 -63 11 -138 25 -167 31 l-52 10 -196
225 c-108 123 -197 224 -199 224 -1 0 -8 -29 -14 -64z"/>
<path d="M273 6430 c-145 -31 -233 -124 -264 -279 -28 -142 16 -292 106 -366
81 -67 120 -76 410 -91 143 -7 270 -13 282 -14 18 0 22 7 28 61 4 33 4 63 0
67 -4 4 -64 9 -133 12 l-127 5 2 85 c1 47 5 152 9 234 l6 149 134 -6 134 -7 0
69 0 68 -182 7 c-101 3 -223 8 -273 11 -49 2 -109 0 -132 -5z m183 -262 c-3
-73 -9 -180 -12 -237 l-7 -103 -76 7 c-42 4 -94 15 -117 25 -94 41 -138 168
-100 293 33 108 93 147 230 147 l89 0 -7 -132z"/>
<path d="M508 5555 c-136 -19 -265 -39 -287 -45 -61 -16 -132 -70 -166 -124
-25 -42 -31 -62 -34 -127 -4 -105 17 -168 78 -229 l46 -46 -27 -38 c-93 -128
-38 -344 107 -418 66 -34 144 -33 445 7 151 20 276 38 278 40 2 2 1 31 -3 64
-6 54 -10 61 -28 61 -12 0 -141 -16 -287 -35 -158 -21 -280 -33 -303 -29 -59
9 -103 54 -118 119 -11 50 -10 57 12 101 37 73 58 80 366 120 147 19 277 36
289 39 19 4 20 8 12 67 -4 34 -10 63 -11 64 -2 2 -122 -12 -267 -31 -303 -40
-343 -42 -389 -17 -68 37 -94 149 -51 220 33 54 79 67 385 107 154 20 281 37
282 39 2 1 -1 29 -5 62 -7 59 -7 59 -42 61 -19 1 -146 -14 -282 -32z"/>
<path d="M11311 4566 c-17 -48 -31 -91 -31 -96 0 -6 36 -101 80 -213 44 -112
80 -206 80 -209 0 -3 -61 16 -135 42 -75 26 -138 43 -141 39 -7 -13 -43 -119
-40 -119 2 0 177 -61 391 -135 213 -74 391 -132 395 -130 9 6 40 92 40 110 0
7 -57 31 -127 55 -71 24 -132 46 -136 50 -5 4 76 58 180 120 103 62 193 120
200 128 14 17 67 171 61 177 -2 2 -124 -68 -272 -156 -147 -87 -271 -159 -274
-159 -4 0 -54 120 -111 268 -57 147 -110 278 -116 291 -11 22 -14 18 -44 -63z"/>
<path d="M10897 3540 c-81 -153 -147 -281 -147 -284 0 -6 731 -399 734 -394
10 12 296 561 294 563 -18 14 -97 55 -106 55 -6 0 -47 -71 -93 -157 -45 -87
-97 -186 -116 -221 l-35 -63 -97 52 c-53 28 -97 53 -99 54 -1 1 43 89 99 195
56 105 97 195 93 200 -5 4 -30 19 -56 34 l-46 27 -51 -96 c-28 -52 -74 -139
-103 -192 -28 -54 -52 -99 -53 -101 -5 -6 -185 93 -185 102 0 4 48 99 106 210
59 110 110 208 115 218 7 13 -2 22 -46 47 -30 17 -56 31 -57 31 -2 0 -69 -126
-151 -280z"/>
<path d="M1143 3542 l-82 -27 108 -210 c207 -404 438 -752 728 -1101 787 -945
1868 -1631 3043 -1933 287 -74 705 -151 721 -133 12 12 70 164 65 169 -3 3
-63 14 -133 24 -840 122 -1664 441 -2363 917 -805 547 -1452 1276 -1897 2138
-52 101 -98 184 -101 183 -4 -1 -44 -13 -89 -27z"/>
<path d="M10568 2998 c-34 -47 -35 -53 -20 -64 9 -6 163 -115 341 -242 l324
-230 40 54 c21 31 37 57 36 58 -32 25 -663 468 -672 472 -7 2 -29 -18 -49 -48z"/>
<path d="M10329 2635 c-27 -9 -69 -35 -99 -62 -65 -59 -100 -128 -100 -200 l0
-53 -48 0 c-135 0 -265 -139 -266 -285 -1 -113 25 -150 272 -391 l217 -213 48
47 49 47 -210 205 c-115 113 -218 220 -227 239 -12 24 -16 49 -12 84 4 44 10
56 50 94 41 38 51 43 94 43 30 0 60 -7 81 -20 18 -11 124 -110 235 -220 l203
-199 48 48 47 48 -206 201 c-113 111 -214 217 -225 234 -69 113 44 262 171
228 37 -10 74 -42 254 -221 116 -115 216 -209 221 -209 5 0 29 19 52 43 l42
43 -212 211 c-234 231 -278 262 -377 269 -33 2 -75 -2 -102 -11z"/>
<path d="M9365 1772 c-112 -39 -213 -121 -256 -209 -36 -74 -38 -182 -6 -263
26 -64 303 -490 319 -490 5 0 31 15 58 33 l49 33 -74 112 -75 111 192 130 192
131 73 -110 c40 -61 76 -110 78 -110 18 0 104 67 100 78 -3 8 -69 111 -148
230 -93 141 -160 232 -191 259 -88 78 -205 102 -311 65z m170 -131 c22 -10 55
-35 73 -55 34 -39 86 -116 80 -120 -60 -44 -381 -257 -383 -254 -16 19 -74
121 -83 147 -40 117 33 236 177 287 50 18 89 17 136 -5z"/>
<path d="M8603 1320 c-38 -8 -407 -164 -426 -180 -8 -7 304 -745 322 -763 7
-7 121 36 121 46 0 2 -26 65 -59 139 l-59 136 96 42 96 42 60 -30 c34 -17 111
-58 171 -91 l110 -59 73 30 c39 17 72 34 72 37 0 3 -71 44 -157 90 -87 46
-163 88 -170 93 -8 7 -3 22 19 58 37 60 49 119 37 182 -30 161 -160 257 -306
228z m115 -146 c32 -22 62 -87 62 -133 0 -63 -34 -91 -189 -161 -74 -33 -138
-57 -142 -53 -4 5 -30 61 -57 126 l-51 119 42 18 c23 10 83 37 132 59 99 44
165 52 203 25z"/>
<path d="M7670 996 c-157 -40 -290 -74 -296 -77 -8 -3 20 -135 87 -408 54
-222 100 -405 101 -406 3 -3 610 145 615 149 4 3 -24 117 -30 122 -2 3 -112
-22 -243 -55 -131 -33 -240 -58 -242 -56 -6 5 -52 188 -52 205 0 12 44 26 178
59 97 24 192 48 210 53 37 10 36 5 11 99 l-9 37 -210 -53 c-116 -29 -212 -50
-214 -46 -11 17 -53 202 -47 205 3 2 113 30 244 62 l238 59 -6 25 c-19 79 -27
100 -38 99 -7 0 -140 -33 -297 -73z"/>
<path d="M7103 883 l-52 -4 -152 -159 c-83 -88 -155 -158 -159 -155 -4 3 -10
55 -14 117 -4 62 -9 126 -12 141 -6 28 -6 28 -67 21 -34 -4 -63 -8 -65 -9 -1
-1 13 -188 31 -416 l33 -414 64 3 c36 2 66 4 67 6 1 1 -2 57 -8 124 -17 193
-32 190 179 35 l182 -134 102 8 103 8 -260 189 c-143 104 -262 191 -265 193
-2 2 97 105 220 228 l225 225 -50 -2 c-28 -1 -73 -3 -102 -5z"/>
</g>
</svg>
